# File created by Blade
# Date/Time:  Thu Jan 22 16:25:48 2015
# Frame Rate: 120.000 fps
#------------------------------------------------------
:FULLY-SPECIFIED
:DEGREES
603
root 3.088657 39.855523 8.974594 59.019888 12.975452 47.179999
RightUpLeg -35.319824 -18.716727 -40.836074
RightLeg -0.545692 -0.000000 0.000000
RightFoot -7.793617 -26.710010 14.344568
RightToeBase 14.779509 -0.000000 -0.000000
LeftUpLeg 9.994985 -27.426168 12.294280
LeftLeg 138.857924 -0.000000 -0.000000
LeftFoot 18.409783 14.838273 -25.248851
LeftToeBase 0.713290 -0.000000 -0.000000
Spine 17.417068 -6.790149 -7.650658
RightShoulder -13.713170 -3.217808 -48.824625
RightArm 47.216380 58.610852 26.336698
RightForeArm 1.878458 -0.000000 12.043541
RightHand 9.706152 -0.000000 -16.616588
RightHandThumb1 -24.326973 -0.000000 -32.862282
LeftShoulder -32.254705 36.132057 -12.833299
LeftArm 26.223083 -17.802536 -82.890783
LeftForeArm 47.485612 -0.000000 11.003073
LeftHand -15.365246 -0.000000 -20.592539
LeftHandThumb1 -26.253704 0.000000 33.147579
Head -15.621366 -19.223672 -14.871298
604
root 3.096761 39.831407 8.965442 59.044286 13.040699 47.384078
RightUpLeg -34.952400 -18.796341 -41.036317
RightLeg -0.863216 -0.000000 0.000000
RightFoot -7.866196 -26.742637 14.167537
RightToeBase 14.951508 -0.000000 -0.000000
LeftUpLeg 9.948078 -27.361217 12.275979
LeftLeg 138.792751 -0.000000 -0.000000
LeftFoot 18.356882 14.995500 -25.313673
LeftToeBase 0.555478 -0.000000 -0.000000
Spine 17.331147 -6.747816 -7.593760
RightShoulder -13.752156 -3.250062 -48.874151
RightArm 47.312334 58.995481 26.104952
RightForeArm 1.850722 -0.000000 11.966621
RightHand 9.680645 0.000000 -16.510337
RightHandThumb1 -24.326973 -0.000000 -32.862282
LeftShoulder -32.187790 35.997713 -12.884032
LeftArm 26.113396 -18.100504 -82.902901
LeftForeArm 47.803194 -0.000000 11.024006
LeftHand -15.376585 0.000000 -20.393857
LeftHandThumb1 -26.253704 0.000000 33.147579
Head -15.518546 -19.333450 -15.182879
605
root 3.103067 39.823245 8.950385 59.125970 13.103604 47.539651
RightUpLeg -34.735465 -19.073874 -41.086068
RightLeg -1.116871 -0.000000 0.000000
RightFoot -7.883349 -26.493527 14.221098
RightToeBase 15.140258 -0.000000 -0.000000
LeftUpLeg 9.778333 -27.183730 12.288815
LeftLeg 138.802191 -0.000000 -0.000000
LeftFoot 18.272522 15.162635 -25.531569
LeftToeBase 0.728832 -0.000000 -0.000000
Spine 17.205119 -6.682943 -7.438422
RightShoulder -13.818110 -3.251461 -48.984557
RightArm 47.382137 59.444965 25.906805
RightForeArm 2.015714 -0.000000 11.997892
RightHand 9.592918 -0.000000 -16.183751
RightHandThumb1 -24.326973 -0.000000 -32.862282
LeftShoulder -32.143397 35.804765 -13.049857
LeftArm 26.015516 -18.414525 -82.909291
LeftForeArm 48.140185 -0.000000 11.069001
LeftHand -15.374576 0.000000 -20.301972
LeftHandThumb1 -26.253704 0.000000 33.147579
Head -15.544943 -19.460126 -15.539694
606
root 3.106309 39.825560 8.933825 59.238450 13.131511 47.600586
RightUpLeg -34.698531 -19.498179 -40.945286
RightLeg -1.346111 -0.000000 0.000000
RightFoot -7.817956 -26.018471 14.426138
RightToeBase 15.161008 -0.000000 -0.000000
LeftUpLeg 9.559954 -26.864357 12.321130
LeftLeg 138.844472 -0.000000 -0.000000
LeftFoot 18.190674 15.272657 -25.728183
LeftToeBase 0.742917 -0.000000 -0.000000
Spine 17.030316 -6.539019 -7.230067
RightShoulder -13.864620 -3.300011 -49.091897
RightArm 47.573515 60.016721 25.819640
RightForeArm 1.989355 -0.000000 12.015164
RightHand 9.473657 0.000000 -15.958176
RightHandThumb1 -24.326973 -0.000000 -32.862282
LeftShoulder -32.077745 35.582722 -13.207931
LeftArm 25.896528 -18.647254 -82.913617
LeftForeArm 48.306710 -0.000000 11.066831
LeftHand -15.390036 -0.000000 -19.981761
LeftHandThumb1 -26.253704 0.000000 33.147579
Head -15.603097 -19.582826 -15.932460
607
root 3.104128 39.832955 8.916966 59.358708 13.144702 47.536227
RightUpLeg -34.845819 -20.011035 -40.595834
RightLeg -1.517298 -0.000000 0.000000
RightFoot -7.745957 -25.323295 14.772232
RightToeBase 15.313656 -0.000000 -0.000000
LeftUpLeg 9.318620 -26.384775 12.418027
LeftLeg 138.920161 -0.000000 -0.000000
LeftFoot 18.121302 15.371650 -25.899059
LeftToeBase 0.857801 -0.000000 -0.000000
Spine 16.825329 -6.321059 -6.966198
RightShoulder -13.870191 -3.282671 -49.229340
RightArm 47.627675 60.568789 25.661671
RightForeArm 1.861571 -0.000000 12.066252
RightHand 9.068210 0.000000 -15.830807
RightHandThumb1 -24.326973 -0.000000 -32.862282
LeftShoulder -32.080589 35.433035 -13.449104
LeftArm 25.862276 -18.862567 -82.998364
LeftForeArm 48.553487 -0.000000 11.092247
LeftHand -15.423409 -0.000000 -19.831612
LeftHandThumb1 -26.253704 0.000000 33.147579
Head -15.705625 -19.638941 -16.280848
608
root 3.100281 39.837546 8.902767 59.458286 13.191054 47.412135
RightUpLeg -35.038309 -20.541431 -40.109710
RightLeg -1.710337 -0.000000 0.000000
RightFoot -7.553598 -24.623626 14.981523
RightToeBase 15.476060 -0.000000 -0.000000
LeftUpLeg 9.093158 -25.874740 12.578263
LeftLeg 139.024084 -0.000000 -0.000000
LeftFoot 18.063856 15.376567 -26.185598
LeftToeBase 0.926827 -0.000000 -0.000000
Spine 16.624625 -6.085523 -6.648263
RightShoulder -13.848707 -3.295269 -49.382115
RightArm 47.791070 61.194534 25.665391
RightForeArm 1.652556 0.000000 12.117302
RightHand 8.925644 -0.000000 -15.575510
RightHandThumb1 -24.326973 -0.000000 -32.862282
LeftShoulder -32.145032 35.384965 -13.732727
LeftArm 25.927485 -18.941626 -83.110941
LeftForeArm 48.583134 -0.000000 11.085957
LeftHand -15.447499 -0.000000 -19.508109
LeftHandThumb1 -26.253704 0.000000 33.147579
Head -15.805129 -19.672463 -16.582366
609
root 3.094138 39.837444 8.893622 59.489533 13.243231 47.221696
RightUpLeg -35.203527 -20.971426 -39.563408
RightLeg -1.977669 -0.000000 0.000000
RightFoot -7.388838 -24.044539 15.216589
RightToeBase 15.776436 -0.000000 -0.000000
LeftUpLeg 8.948055 -25.276037 12.783128
LeftLeg 139.123528 -0.000000 -0.000000
LeftFoot 18.056974 15.367948 -26.179567
LeftToeBase 0.962219 -0.000000 -0.000000
Spine 16.502997 -5.784999 -6.343869
RightShoulder -13.880479 -3.355853 -49.467471
RightArm 47.684212 61.638808 25.302619
RightForeArm 1.716510 -0.000000 12.124753
RightHand 8.937565 -0.000000 -15.432044
RightHandThumb1 -24.326973 -0.000000 -32.862282
LeftShoulder -32.192572 35.339895 -13.937682
LeftArm 25.987599 -18.913428 -83.226835
LeftForeArm 48.586633 -0.000000 11.022008
LeftHand -15.410223 -0.000000 -19.241601
LeftHandThumb1 -26.253704 0.000000 33.147579
Head -15.943222 -19.685826 -16.740321
610
root 3.080658 39.834474 8.888516 59.475135 13.293633 46.962890
RightUpLeg -35.358681 -21.253969 -39.009806
RightLeg -2.274589 -0.000000 0.000000
RightFoot -7.278719 -23.559929 15.544236
RightToeBase 16.236972 -0.000000 -0.000000
LeftUpLeg 8.846420 -24.618361 13.036364
LeftLeg 139.231334 -0.000000 -0.000000
LeftFoot 18.054162 15.352760 -26.424383
LeftToeBase 1.133025 -0.000000 -0.000000
Spine 16.435124 -5.434360 -6.060772
RightShoulder -13.927701 -3.401558 -49.518536
RightArm 47.744592 62.091672 25.102143
RightForeArm 1.677528 0.000000 12.052338
RightHand 8.882027 0.000000 -15.456537
RightHandThumb1 -24.326973 -0.000000 -32.862282
LeftShoulder -32.181688 35.194533 -14.013617
LeftArm 25.915621 -18.846037 -83.315098
LeftForeArm 48.452777 -0.000000 10.950385
LeftHand -15.369266 0.000000 -19.226282
LeftHandThumb1 -26.253704 0.000000 33.147579
Head -16.093688 -19.731730 -16.759459
611
root 3.078695 39.835694 8.882845 59.474095 13.297563 46.842336
RightUpLeg -35.415106 -21.677438 -38.559708
RightLeg -2.630201 -0.000000 0.000000
RightFoot -7.190010 -22.980210 15.945810
RightToeBase 16.647643 -0.000000 -0.000000
LeftUpLeg 8.728757 -24.000163 13.156708
LeftLeg 139.371500 -0.000000 -0.000000
LeftFoot 18.137450 15.300647 -26.482324
LeftToeBase 0.936123 -0.000000 -0.000000
Spine 16.380105 -5.195528 -5.942280
RightShoulder -13.992911 -3.475246 -49.524675
RightArm 48.047074 62.511247 25.152910
RightForeArm 1.583542 0.000000 11.939347
RightHand 8.786211 0.000000 -15.291931
RightHandThumb1 -24.326973 -0.000000 -32.862282
LeftShoulder -32.253597 35.154925 -14.123420
LeftArm 25.923310 -18.708653 -83.406228
LeftForeArm 48.210753 -0.000000 10.894785
LeftHand -15.408910 0.000000 -19.321368
LeftHandThumb1 -26.253704 0.000000 33.147579
Head -16.201870 -19.715854 -16.662606
612
root 3.076432 39.835074 8.879442 59.431472 13.281382 46.745775
RightUpLeg -35.386673 -22.082640 -38.147784
RightLeg -3.068764 -0.000000 0.000000
RightFoot -7.068533 -22.420833 16.309719
RightToeBase 16.884210 -0.000000 -0.000000
LeftUpLeg 8.651604 -23.383850 13.239959
LeftLeg 139.527998 -0.000000 -0.000000
LeftFoot 18.240874 15.210248 -26.525725
LeftToeBase 1.060314 -0.000000 -0.000000
Spine 16.380880 -4.982846 -5.906381
RightShoulder -14.025837 -3.540519 -49.530186
RightArm 48.491864 62.969121 25.424638
RightForeArm 1.392659 -0.000000 11.852914
RightHand 9.174986 -0.000000 -15.181585
RightHandThumb1 -24.326973 -0.000000 -32.862282
LeftShoulder -32.330032 35.143743 -14.199744
LeftArm 25.936814 -18.585187 -83.534672
LeftForeArm 47.917165 -0.000000 10.828883
LeftHand -15.437733 -0.000000 -19.319331
LeftHandThumb1 -26.253704 0.000000 33.147579
Head -16.284458 -19.700443 -16.486828
613
root 3.070688 39.834912 8.876336 59.391581 13.262433 46.701905
RightUpLeg -35.269997 -22.393256 -37.895421
RightLeg -3.502159 -0.000000 0.000000
RightFoot -7.080906 -21.910691 16.916845
RightToeBase 17.683800 -0.000000 -0.000000
LeftUpLeg 8.560376 -22.849311 13.311295
LeftLeg 139.677993 -0.000000 -0.000000
LeftFoot 18.417173 15.023530 -26.640078
LeftToeBase 1.209218 -0.000000 -0.000000
Spine 16.405528 -4.828019 -5.940748
RightShoulder -14.110594 -3.659094 -49.492628
RightArm 49.054324 63.331521 25.792187
RightForeArm 1.241356 -0.000000 11.762790
RightHand 8.703804 -0.000000 -15.276170
RightHandThumb1 -24.326973 -0.000000 -32.862282
LeftShoulder -32.378402 35.158217 -14.241810
LeftArm 25.947917 -18.510708 -83.676296
LeftForeArm 47.532121 -0.000000 10.768304
LeftHand -15.400581 -0.000000 -19.543446
LeftHandThumb1 -26.253704 0.000000 33.147579
Head -16.352217 -19.693991 -16.256604
614
root 3.066224 39.836277 8.873725 59.342503 13.255025 46.730088
RightUpLeg -35.053673 -22.707524 -37.732077
RightLeg -3.968216 -0.000000 0.000000
RightFoot -7.036698 -21.471420 17.426315
RightToeBase 18.131556 -0.000000 -0.000000
LeftUpLeg 8.465051 -22.378487 13.355701
LeftLeg 139.844484 -0.000000 -0.000000
LeftFoot 18.624114 14.846253 -26.827441
LeftToeBase 1.134872 -0.000000 -0.000000
Spine 16.469188 -4.768192 -6.027239
RightShoulder -14.161109 -3.719840 -49.445679
RightArm 49.536003 63.647913 26.078703
RightForeArm 1.317189 -0.000000 11.670442
RightHand 8.523613 -0.000000 -15.228023
RightHandThumb1 -24.326973 -0.000000 -32.862282
LeftShoulder -32.420334 35.155530 -14.267675
LeftArm 25.929224 -18.434996 -83.804037
LeftForeArm 47.038939 -0.000000 10.680029
LeftHand -15.344168 -0.000000 -19.704549
LeftHandThumb1 -26.253704 0.000000 33.147579
Head -16.388943 -19.676402 -16.028712
